# xmcd
#
# Track frame offsets: 
#        150
#        7597
#        25254
#        40078
#        56443
#        67415
#        79867
#        99581
#        113438
#        124195
#        136834
#        150529
#        162946
#        177520
#        189317
#        198631
#        212371
#        227031
#        239733
#
# Disc length: 3665 seconds
#
# Revision: 0
# Processed by: cddbd v1.4PL0 Copyright (c) Steve Scherf et al.
# Submitted via: ExactAudioCopy v0.90b4
#
DISCID=f80e4f13
DTITLE=Various Artist - Country Songs of American 2
DYEAR=2000
DGENRE=Country
TTITLE0=All I Have To Do Is Dream
TTITLE1=Vincent
TTITLE2=Longer
TTITLE3=Jambalaya
TTITLE4=Everygreen Tree
TTITLE5=Laughter In The Rain
TTITLE6=Tell Laura I Love Her
TTITLE7=Both Side Now
TTITLE8=Devoted To You
TTITLE9=Yellow River
TTITLE10=The World Is Getting Smaller
TTITLE11=Green Leaves Of Summer
TTITLE12=Over And Over
TTITLE13=I'll Have To Say I Love You In A Song
TTITLE14=Photographs and Memories
TTITLE15=Heart Of Gold
TTITLE16=Donna Donna
TTITLE17=Sealed With A Kiss
TTITLE18=America Pie
EXTD=
EXTT0=
EXTT1=
EXTT2=
EXTT3=
EXTT4=
EXTT5=
EXTT6=
EXTT7=
EXTT8=
EXTT9=
EXTT10=
EXTT11=
EXTT12=
EXTT13=
EXTT14=
EXTT15=
EXTT16=
EXTT17=
EXTT18=
PLAYORDER=
